<?xml version="1.0" standalone="no"?>
<!DOCTYPE svg PUBLIC "-//W3C//DTD SVG 20010904//EN" "http://www.w3.org/TR/2001/REC-SVG-20010904/DTD/svg10.dtd">
<!-- Created using Krita: https://krita.org -->
<svg xmlns="http://www.w3.org/2000/svg" 
    xmlns:xlink="http://www.w3.org/1999/xlink"
    xmlns:krita="http://krita.org/namespaces/svg/krita"
    xmlns:sodipodi="http://sodipodi.sourceforge.net/DTD/sodipodi-0.dtd"
    width="46.08pt"
    height="46.08pt"
    viewBox="0 0 46.08 46.08">
<defs>
  <linearGradient id="gradient0" gradientTransform="matrix(-0.3937741 0 0 0.3937521 -0.143356092077728 1.35905598118648)" gradientUnits="objectBoundingBox" x1="-1.75159987808497" y1="-2.95871627276997" x2="-1.07840370155209" y2="-1.18778023927303" spreadMethod="pad">
   <stop stop-color="#ffffff" offset="0" stop-opacity="0"/>
   <stop stop-color="#ffffff" offset="1" stop-opacity="0.274509803921569"/>
  </linearGradient>
 </defs>
<g id="layer1" transform="matrix(0.72 0 0 0.72 -194.0528232 -191.2328928)" fill="none">
  <g id="g2424" transform="matrix(1.3473684 0 0 1.3473684 -632.88236 -513.34366)" fill="none">
   <g id="g2210" transform="matrix(0.25 0 0 0.25 502.3126 469.21738)" fill="none">
    <path id="path2518" transform="matrix(0.7421875 0 0 0.7421875 669.75015 435.62318)" fill="#1793d1" fill-rule="evenodd" stroke-opacity="0" stroke="#000000" stroke-width="0" stroke-linecap="square" stroke-linejoin="bevel" d="M128 0C116.605 27.9371 109.687 46.2372 97 73.3438C104.778 81.589 114.338 91.1555 129.844 102C113.174 95.1404 101.81 88.2715 93.3125 81.125C77.076 115.005 51.6216 163.246 0 256C40.5627 232.582 72.0076 218.138 101.313 212.625C100.059 207.221 99.389 201.347 99.4375 195.25L99.4688 193.969C100.113 167.975 113.638 147.987 129.656 149.344C145.674 150.701 158.144 172.881 157.5 198.875C157.379 203.771 156.81 208.476 155.844 212.844C184.833 218.517 215.982 232.897 256 256C248.108 241.47 241.039 228.38 234.313 215.906C223.716 207.694 212.669 197.009 190.125 185.438C205.621 189.464 216.727 194.12 225.375 199.313C156.98 71.9727 151.454 55.0404 128 0Z" sodipodi:nodetypes="cccccccccccccccc"/>
    <path id="path2522" transform="translate(765.0814, 436.85262)" fill="#ffffff" fill-opacity="0.16568245975433" fill-rule="evenodd" stroke-opacity="0" stroke="#000000" stroke-width="0" stroke-linecap="square" stroke-linejoin="bevel" d="M53.1447 111.7C11.9632 55.8051 2.41782 10.7553 0 0C21.9674 50.6686 21.8173 51.2899 53.1447 111.7Z" sodipodi:nodetypes="ccc"/>
    <path id="path2520" transform="translate(711.96206, 436.36538)" fill="url(#gradient0)" fill-rule="evenodd" stroke-opacity="0" stroke="#000000" stroke-width="0" stroke-linecap="square" stroke-linejoin="bevel" d="M53.1592 0C52.0911 2.62569 51.0835 5.18569 50.0977 7.60742C49.0165 10.2633 47.9652 12.8219 46.9434 15.3076C45.9216 17.7934 44.8858 20.1496 43.8818 22.5439C42.8779 24.9384 41.9407 27.3056 40.9131 29.6875C39.8855 32.0693 38.7588 34.4759 37.666 36.9238C36.5733 39.3718 35.4327 41.8457 34.2334 44.4385C33.034 47.0313 31.777 49.7862 30.4297 52.6025C30.247 52.9845 30.0589 53.4217 29.8731 53.8086C35.6307 59.9074 42.7287 66.9521 54.1797 74.9609C41.8075 69.8698 33.3967 64.7718 27.0899 59.4678C26.7612 60.1388 26.5008 60.7288 26.1621 61.416C24.9149 64.0006 23.5777 66.5601 22.1729 69.3945C21.8379 70.0605 21.5895 70.6611 21.2451 71.3428C19.7601 74.3231 18.1994 77.408 16.5137 80.7129C16.1794 81.3634 15.8356 81.9039 15.4932 82.5684C14.4729 84.548 11.2183 90.7916 7.88575 97.1338C5.94259 100.839 4.41681 103.874 2.22657 107.988C1.60571 109.17 0.32817 111.536 0 112.163C24.1206 98.5854 50.143 78.8639 97.4121 95.7422C95.045 91.259 92.7762 87.0778 90.7324 83.125C88.6887 79.1721 86.8364 75.4927 85.0733 71.9922C83.3103 68.4917 81.6811 65.1915 80.1563 62.0654C78.6314 58.9394 77.2179 55.9889 75.8887 53.1592C74.5593 50.3295 73.2612 47.6065 72.085 44.9951C70.9086 42.3837 69.8111 39.8588 68.7451 37.3877C67.6791 34.9165 66.6817 32.4673 65.6836 30.0586C64.6854 27.6498 63.6877 25.3396 62.7149 22.915C62.2914 21.86 61.9332 20.7365 61.5088 19.668C58.8732 13.4782 56.2852 7.34302 53.1592 0Z" sodipodi:nodetypes="cccccccccccccccccccccccccccccc"/>
   </g>
  </g>
 </g>
</svg>
